<?xml version="1.0" encoding="iso-8859-1"?>
<!-- Generator: Adobe Illustrator 19.0.0, SVG Export Plug-In . SVG Version: 6.00 Build 0)  -->
<svg version="1.1" id="Layer_1" xmlns="http://www.w3.org/2000/svg" xmlns:xlink="http://www.w3.org/1999/xlink" x="0px" y="0px"
	 viewBox="0 0 512 512" style="enable-background:new 0 0 512 512;" xml:space="preserve">
<g>
	<g>
		<path d="M502.658,255.148l-135.16-135.161c-17.176-17.175-39.516-26.922-63.502-27.865c-9.866-9.231-49.303-43.554-90.129-43.554
			c-4.288,0-7.764,3.476-7.764,7.764v93.401l-24.294,27.562c-2.835,3.216-2.526,8.123,0.69,10.959
			c3.217,2.836,8.124,2.526,10.959-0.69l46.653-52.93c14.74-16.724,35.128-26.319,57.409-27.021
			c22.259-0.701,43.233,7.592,58.996,23.356l13.141,13.141c-24.732,40.119-37.782,86.178-37.782,133.628
			c0,20.032,2.331,39.979,6.929,59.289c0.849,3.567,4.033,5.967,7.547,5.967c0.594,0,1.2-0.069,1.804-0.213
			c4.171-0.993,6.748-5.18,5.755-9.351c-4.318-18.133-6.506-36.871-6.506-55.693c0-43.322,11.579-85.406,33.558-122.324
			l110.716,110.716c6.402,6.402,6.402,16.818,0,23.219L380.975,400.05c-7.27-12.214-13.468-25.063-18.437-38.333
			c-1.503-4.017-5.978-6.052-9.993-4.549c-4.016,1.503-6.053,5.978-4.549,9.994c5.753,15.361,13.032,30.201,21.663,44.204
			l-13.141,13.141c-15.763,15.763-36.724,24.063-58.996,23.356c-22.281-0.702-42.669-10.298-57.409-27.021L113.975,277.738
			l59.135-67.089c2.835-3.216,2.526-8.123-0.69-10.959c-3.217-2.835-8.123-2.526-10.959,0.69l-57.753,65.521L13.659,160.824
			c-2.114-2.468-5.541-3.357-8.588-2.23C2.024,159.722,0,162.628,0,165.876v223.723c0,3.249,2.024,6.155,5.07,7.282
			c0.879,0.325,1.79,0.482,2.692,0.482c2.224,0,4.392-0.957,5.896-2.712l90.049-105.079L228.462,431.11
			c17.606,19.974,41.957,31.436,68.57,32.273c1.041,0.032,2.08,0.049,3.116,0.049c25.445,0,49.259-9.855,67.35-27.946l135.16-135.16
			C515.114,287.871,515.114,267.604,502.658,255.148z M228.463,124.365l-6.832,7.751V64.593c23.4,2.928,46.402,18.173,60.321,29.151
			C261.299,97.661,242.681,108.235,228.463,124.365z M15.528,368.608V186.868l77.873,90.871L15.528,368.608z"/>
	</g>
</g>
<g>
	<g>
		<path d="M304.43,333.824c-0.246-4.282-3.938-7.553-8.198-7.304l-66.333,3.827l20.702-35.653c2.153-3.709,0.892-8.461-2.816-10.614
			c-3.708-2.152-8.46-0.892-10.613,2.816l-27.949,48.135c-1.435,2.471-1.396,5.531,0.1,7.965c1.418,2.306,3.927,3.698,6.613,3.698
			c0.149,0,0.299-0.004,0.449-0.012l80.74-4.658C301.407,341.774,304.678,338.104,304.43,333.824z"/>
	</g>
</g>
<g>
	<g>
		<path d="M431.248,235.813c-23.117,0-41.923,18.806-41.923,41.924c0,23.117,18.806,41.924,41.923,41.924
			c23.117,0,41.925-18.806,41.925-41.924C473.173,254.621,454.365,235.813,431.248,235.813z M431.248,304.133
			c-14.555,0.001-26.396-11.841-26.396-26.396c0-14.555,11.841-26.396,26.396-26.396c14.556,0,26.397,11.841,26.397,26.396
			C457.645,292.292,445.804,304.133,431.248,304.133z"/>
	</g>
</g>
<g>
	<g>
		<path d="M435.237,271.077c-2.867-1.718-6.653-1.367-9.146,0.861c-2.437,2.179-3.263,5.743-2.017,8.771
			c1.381,3.355,5.12,5.381,8.686,4.638c3.126-0.586,5.585-3.177,6.13-6.285C439.44,275.939,437.954,272.705,435.237,271.077z"/>
	</g>
</g>
<g>
</g>
<g>
</g>
<g>
</g>
<g>
</g>
<g>
</g>
<g>
</g>
<g>
</g>
<g>
</g>
<g>
</g>
<g>
</g>
<g>
</g>
<g>
</g>
<g>
</g>
<g>
</g>
<g>
</g>
</svg>
